<svg width="20" height="20" viewBox="0 0 20 20" fill="none" xmlns="http://www.w3.org/2000/svg">
<path d="M16.6667 3.33325H3.33334C2.41667 3.33325 1.67501 4.08325 1.67501 4.99992L1.66667 14.9999C1.66667 15.9166 2.41667 16.6666 3.33334 16.6666H16.6667C17.5833 16.6666 18.3333 15.9166 18.3333 14.9999V4.99992C18.3333 4.08325 17.5833 3.33325 16.6667 3.33325ZM16.3333 6.87492L10.4417 10.5583C10.175 10.7249 9.82501 10.7249 9.55834 10.5583L3.66667 6.87492C3.58311 6.82801 3.50994 6.76464 3.45158 6.68863C3.39322 6.61262 3.35089 6.52557 3.32715 6.43273C3.30341 6.33989 3.29876 6.2432 3.31347 6.14851C3.32818 6.05382 3.36195 5.9631 3.41274 5.88184C3.46353 5.80058 3.53028 5.73046 3.60894 5.67575C3.68761 5.62103 3.77656 5.58284 3.87042 5.5635C3.96427 5.54416 4.06107 5.54406 4.15497 5.56321C4.24886 5.58236 4.33789 5.62036 4.41667 5.67492L10 9.16658L15.5833 5.67492C15.6621 5.62036 15.7512 5.58236 15.845 5.56321C15.9389 5.54406 16.0357 5.54416 16.1296 5.5635C16.2234 5.58284 16.3124 5.62103 16.3911 5.67575C16.4697 5.73046 16.5365 5.80058 16.5873 5.88184C16.6381 5.9631 16.6718 6.05382 16.6865 6.14851C16.7013 6.2432 16.6966 6.33989 16.6729 6.43273C16.6491 6.52557 16.6068 6.61262 16.5484 6.68863C16.4901 6.76464 16.4169 6.82801 16.3333 6.87492Z" fill="#BD0007"/>
</svg>
