<svg width="20" height="20" viewBox="0 0 20 20" fill="none" xmlns="http://www.w3.org/2000/svg">
<path fill-rule="evenodd" clip-rule="evenodd" d="M7.50003 2.50008C7.50003 2.27907 7.58783 2.06711 7.74411 1.91083C7.90039 1.75455 8.11235 1.66675 8.33336 1.66675H11.6667C11.8877 1.66675 12.0997 1.75455 12.256 1.91083C12.4122 2.06711 12.5 2.27907 12.5 2.50008V4.16675H15C15.123 4.1668 15.2444 4.19406 15.3556 4.24658C15.4668 4.2991 15.565 4.37558 15.6431 4.47053C15.7213 4.56548 15.7775 4.67655 15.8076 4.79577C15.8377 4.91499 15.8411 5.0394 15.8175 5.16008L15.4534 7.02508L14.3475 6.77925L10.1809 5.85341C10.0618 5.82694 9.9383 5.82694 9.8192 5.85341L5.65253 6.77841L4.5467 7.02508L4.18253 5.16008C4.15892 5.0394 4.16231 4.91499 4.19246 4.79577C4.22261 4.67655 4.27877 4.56548 4.35691 4.47053C4.43506 4.37558 4.53324 4.2991 4.64443 4.24658C4.75562 4.19406 4.87706 4.1668 5.00003 4.16675H7.50003V2.50008ZM2.42336 9.16341L2.3192 9.18675C2.19565 9.21428 2.08001 9.2696 1.98104 9.3485C1.88206 9.4274 1.80236 9.52781 1.74798 9.64211C1.69361 9.75641 1.66598 9.88159 1.6672 10.0082C1.66842 10.1347 1.69846 10.2594 1.75503 10.3726L3.4217 13.7059C3.49984 13.8623 3.62517 13.9901 3.77996 14.0713C3.93474 14.1525 4.11114 14.183 4.2842 14.1584L10 13.3417L15.7159 14.1584C15.8889 14.183 16.0653 14.1525 16.2201 14.0713C16.3749 13.9901 16.5002 13.8623 16.5784 13.7059L18.245 10.3726C18.3016 10.2594 18.3316 10.1347 18.3329 10.0082C18.3341 9.88159 18.3065 9.75641 18.2521 9.64211C18.1977 9.52781 18.118 9.4274 18.019 9.3485C17.9201 9.2696 17.8044 9.21428 17.6809 9.18675L17.5767 9.16341C17.4905 9.17126 17.4036 9.16564 17.3192 9.14675L13.9859 8.40591L10 7.52008L6.0142 8.40591L2.68086 9.14758C2.59637 9.16619 2.5095 9.17154 2.42336 9.16341ZM7.72336 15.5042C8.00736 15.1797 8.35746 14.9196 8.75018 14.7414C9.14291 14.5632 9.56919 14.471 10.0004 14.471C10.4317 14.471 10.858 14.5632 11.2507 14.7414C11.6434 14.9196 11.9935 15.1797 12.2775 15.5042L12.3067 15.5376C12.5157 15.7767 12.8045 15.9316 13.1193 15.9734C13.4341 16.0153 13.7533 15.9412 14.0175 15.7651C14.419 15.4976 14.8794 15.3317 15.3592 15.2818C15.839 15.2318 16.3238 15.2993 16.7717 15.4784L17.8092 15.8926C18.011 15.9769 18.1716 16.1372 18.2563 16.3389C18.3409 16.5406 18.3429 16.7675 18.2617 16.9707C18.1806 17.1738 18.0228 17.3369 17.8224 17.4247C17.6221 17.5125 17.3952 17.518 17.1909 17.4401L16.1534 17.0251C15.9563 16.9463 15.743 16.9167 15.5319 16.9388C15.3208 16.9608 15.1182 17.0339 14.9417 17.1517C14.3411 17.5521 13.6154 17.7204 12.8999 17.6254C12.1844 17.5303 11.5278 17.1784 11.0525 16.6351L11.0234 16.6017C10.8958 16.4558 10.7385 16.3388 10.562 16.2587C10.3855 16.1785 10.1939 16.1371 10 16.1371C9.80619 16.1371 9.61458 16.1785 9.43808 16.2587C9.26158 16.3388 9.10427 16.4558 8.9767 16.6017L8.94753 16.6351C8.47227 17.1784 7.81571 17.5303 7.10018 17.6254C6.38466 17.7204 5.65898 17.5521 5.05836 17.1517C4.88182 17.0339 4.67927 16.9608 4.46817 16.9388C4.25708 16.9167 4.04379 16.9463 3.8467 17.0251L2.8092 17.4401C2.70721 17.4827 2.59776 17.5046 2.48722 17.5045C2.37669 17.5044 2.26727 17.4824 2.16535 17.4396C2.06343 17.3968 1.97103 17.3342 1.89355 17.2553C1.81607 17.1765 1.75504 17.083 1.71403 16.9804C1.67301 16.8777 1.65283 16.768 1.65465 16.6574C1.65648 16.5469 1.68027 16.4379 1.72465 16.3366C1.76902 16.2354 1.8331 16.144 1.91314 16.0678C1.99318 15.9915 2.08759 15.932 2.19086 15.8926L3.22836 15.4784C3.67628 15.2993 4.16103 15.2318 4.64083 15.2818C5.12063 15.3317 5.58109 15.4976 5.98253 15.7651C6.24674 15.9412 6.566 16.0153 6.88078 15.9734C7.19556 15.9316 7.48437 15.7767 7.69336 15.5376L7.72336 15.5042Z" fill="#BD0007"/>
</svg>
